<?xml version="1.0" encoding="utf-8"?>
<!-- Generator: Adobe Illustrator 20.0.0, SVG Export Plug-In . SVG Version: 6.00 Build 0)  -->
<svg version="1.1"
	 id="Layer_1" xmlns:cc="http://creativecommons.org/ns#" xmlns:dc="http://purl.org/dc/elements/1.1/" xmlns:inkscape="http://www.inkscape.org/namespaces/inkscape" xmlns:rdf="http://www.w3.org/1999/02/22-rdf-syntax-ns#" xmlns:sodipodi="http://sodipodi.sourceforge.net/DTD/sodipodi-0.dtd" xmlns:svg="http://www.w3.org/2000/svg"
	 xmlns="http://www.w3.org/2000/svg" xmlns:xlink="http://www.w3.org/1999/xlink" x="0px" y="0px" viewBox="0 0 90 90"
	 style="enable-background:new 0 0 90 90;" xml:space="preserve">
<style type="text/css">
	.st0{fill:#90D397;}
</style>
<g transform="translate(0,-952.36218)">
	<path class="st0" d="M45,952.4c-24.9,0-45,20.1-45,45c0,24.9,20.1,45,45,45s45-20.1,45-45C90,972.5,69.9,952.4,45,952.4z
		 M70.2,974.8c1.2,0,2.4,0.4,3.2,1.3c2,2,1.6,5.4-0.7,7.8l-33.9,33.9c-0.1,0.1-0.3,0.3-0.4,0.4c-0.1,0.1-0.2,0.2-0.3,0.3
		c-2,2-5.1,2-7.1,0l-14.1-14.1c-2-2-2-5.1,0-7.1s5.1-2,7.1,0l10.6,10.6l31.1-31.1C66.9,975.4,68.6,974.8,70.2,974.8z"/>
</g>
</svg>
